<?xml version="1.0" encoding="UTF-8"?>
<!DOCTYPE svg PUBLIC "-//W3C//DTD SVG 1.1//EN" "http://www.w3.org/Graphics/SVG/1.1/DTD/svg11.dtd">
<svg version="1.2" width="176.65mm" height="176.65mm" viewBox="0 0 17665 17665" preserveAspectRatio="xMidYMid" fill-rule="evenodd" stroke-width="28.222" stroke-linejoin="round" xmlns="http://www.w3.org/2000/svg" xmlns:ooo="http://xml.openoffice.org/svg/export" xmlns:xlink="http://www.w3.org/1999/xlink" xmlns:presentation="http://sun.com/xmlns/staroffice/presentation" xmlns:smil="http://www.w3.org/2001/SMIL20/" xmlns:anim="urn:oasis:names:tc:opendocument:xmlns:animation:1.0" xml:space="preserve">
 <defs class="ClipPathGroup">
  <clipPath id="presentation_clip_path" clipPathUnits="userSpaceOnUse">
   <rect x="0" y="0" width="17665" height="17665"/>
  </clipPath>
  <clipPath id="presentation_clip_path_shrink" clipPathUnits="userSpaceOnUse">
   <rect x="17" y="17" width="17630" height="17630"/>
  </clipPath>
 </defs>
 <defs class="TextShapeIndex">
  <g ooo:slide="id1" ooo:id-list="id3 id4 id5 id6 id7 id8 id9 id10 id11 id12 id13 id14 id15 id16 id17 id18"/>
 </defs>
 <defs class="EmbeddedBulletChars">
  <g id="bullet-char-template-57356" transform="scale(0.00048828125,-0.00048828125)">
   <path d="M 580,1141 L 1163,571 580,0 -4,571 580,1141 Z"/>
  </g>
  <g id="bullet-char-template-57354" transform="scale(0.00048828125,-0.00048828125)">
   <path d="M 8,1128 L 1137,1128 1137,0 8,0 8,1128 Z"/>
  </g>
  <g id="bullet-char-template-10146" transform="scale(0.00048828125,-0.00048828125)">
   <path d="M 174,0 L 602,739 174,1481 1456,739 174,0 Z M 1358,739 L 309,1346 659,739 1358,739 Z"/>
  </g>
  <g id="bullet-char-template-10132" transform="scale(0.00048828125,-0.00048828125)">
   <path d="M 2015,739 L 1276,0 717,0 1260,543 174,543 174,936 1260,936 717,1481 1274,1481 2015,739 Z"/>
  </g>
  <g id="bullet-char-template-10007" transform="scale(0.00048828125,-0.00048828125)">
   <path d="M 0,-2 C -7,14 -16,27 -25,37 L 356,567 C 262,823 215,952 215,954 215,979 228,992 255,992 264,992 276,990 289,987 310,991 331,999 354,1012 L 381,999 492,748 772,1049 836,1024 860,1049 C 881,1039 901,1025 922,1006 886,937 835,863 770,784 769,783 710,716 594,584 L 774,223 C 774,196 753,168 711,139 L 727,119 C 717,90 699,76 672,76 641,76 570,178 457,381 L 164,-76 C 142,-110 111,-127 72,-127 30,-127 9,-110 8,-76 1,-67 -2,-52 -2,-32 -2,-23 -1,-13 0,-2 Z"/>
  </g>
  <g id="bullet-char-template-10004" transform="scale(0.00048828125,-0.00048828125)">
   <path d="M 285,-33 C 182,-33 111,30 74,156 52,228 41,333 41,471 41,549 55,616 82,672 116,743 169,778 240,778 293,778 328,747 346,684 L 369,508 C 377,444 397,411 428,410 L 1163,1116 C 1174,1127 1196,1133 1229,1133 1271,1133 1292,1118 1292,1087 L 1292,965 C 1292,929 1282,901 1262,881 L 442,47 C 390,-6 338,-33 285,-33 Z"/>
  </g>
  <g id="bullet-char-template-9679" transform="scale(0.00048828125,-0.00048828125)">
   <path d="M 813,0 C 632,0 489,54 383,161 276,268 223,411 223,592 223,773 276,916 383,1023 489,1130 632,1184 813,1184 992,1184 1136,1130 1245,1023 1353,916 1407,772 1407,592 1407,412 1353,268 1245,161 1136,54 992,0 813,0 Z"/>
  </g>
  <g id="bullet-char-template-8226" transform="scale(0.00048828125,-0.00048828125)">
   <path d="M 346,457 C 273,457 209,483 155,535 101,586 74,649 74,723 74,796 101,859 155,911 209,963 273,989 346,989 419,989 480,963 531,910 582,859 608,796 608,723 608,648 583,586 532,535 482,483 420,457 346,457 Z"/>
  </g>
  <g id="bullet-char-template-8211" transform="scale(0.00048828125,-0.00048828125)">
   <path d="M -4,459 L 1135,459 1135,606 -4,606 -4,459 Z"/>
  </g>
  <g id="bullet-char-template-61548" transform="scale(0.00048828125,-0.00048828125)">
   <path d="M 173,740 C 173,903 231,1043 346,1159 462,1274 601,1332 765,1332 928,1332 1067,1274 1183,1159 1299,1043 1357,903 1357,740 1357,577 1299,437 1183,322 1067,206 928,148 765,148 601,148 462,206 346,322 231,437 173,577 173,740 Z"/>
  </g>
 </defs>
 <g>
  <g id="id2" class="Master_Slide">
   <g id="bg-id2" class="Background"/>
   <g id="bo-id2" class="BackgroundObjects"/>
  </g>
 </g>
 <g class="SlideGroup">
  <g>
   <g id="container-id1">
    <g id="id1" class="Slide" clip-path="url(#presentation_clip_path)">
     <g class="Page">
      <g class="com.sun.star.drawing.CustomShape">
       <g id="id3">
        <rect class="BoundingBox" stroke="none" fill="none" x="7809" y="5717" width="1904" height="3904"/>
        <path fill="rgb(113,66,22)" stroke="none" d="M 8760,5718 L 9711,9619 7810,9619 8760,5718 Z"/>
        <path fill="none" stroke="rgb(113,66,22)" d="M 8760,5718 L 9711,9619 7810,9619 8760,5718 Z"/>
       </g>
      </g>
      <g class="com.sun.star.drawing.CustomShape">
       <g id="id4">
        <rect class="BoundingBox" stroke="none" fill="none" x="7809" y="9316" width="1904" height="604"/>
        <path fill="rgb(113,66,22)" stroke="none" d="M 9711,9618 C 9711,9565 9667,9513 9584,9467 9500,9422 9380,9384 9236,9357 9091,9331 8927,9317 8761,9317 8594,9317 8430,9331 8285,9357 8141,9384 8021,9422 7937,9467 7854,9513 7810,9565 7810,9618 7810,9670 7854,9722 7937,9768 8021,9813 8141,9851 8285,9878 8430,9904 8594,9918 8761,9918 8927,9918 9091,9904 9236,9878 9380,9851 9500,9813 9584,9768 9667,9722 9711,9670 9711,9618 L 9711,9618 Z"/>
        <path fill="none" stroke="rgb(113,66,22)" d="M 9711,9618 C 9711,9565 9667,9513 9584,9467 9500,9422 9380,9384 9236,9357 9091,9331 8927,9317 8761,9317 8594,9317 8430,9331 8285,9357 8141,9384 8021,9422 7937,9467 7854,9513 7810,9565 7810,9618 7810,9670 7854,9722 7937,9768 8021,9813 8141,9851 8285,9878 8430,9904 8594,9918 8761,9918 8927,9918 9091,9904 9236,9878 9380,9851 9500,9813 9584,9768 9667,9722 9711,9670 9711,9618 Z"/>
       </g>
      </g>
      <g class="com.sun.star.drawing.CustomShape">
       <g id="id5">
        <rect class="BoundingBox" stroke="none" fill="none" x="8936" y="7329" width="1077" height="588"/>
        <path fill="rgb(113,66,22)" stroke="none" d="M 10011,7330 L 9149,7915 8937,7603 10011,7330 Z"/>
        <path fill="none" stroke="rgb(113,66,22)" d="M 10011,7330 L 9149,7915 8937,7603 10011,7330 Z"/>
       </g>
      </g>
      <g class="com.sun.star.drawing.CustomShape">
       <g id="id6">
        <rect class="BoundingBox" stroke="none" fill="none" x="7478" y="7416" width="1039" height="484"/>
        <path fill="rgb(113,66,22)" stroke="none" d="M 7479,7417 L 8515,7522 8477,7898 7479,7417 Z"/>
        <path fill="none" stroke="rgb(113,66,22)" d="M 7479,7417 L 8515,7522 8477,7898 7479,7417 Z"/>
       </g>
      </g>
      <g class="com.sun.star.drawing.CustomShape">
       <g id="id7">
        <rect class="BoundingBox" stroke="none" fill="none" x="8319" y="3527" width="894" height="894"/>
        <path fill="rgb(174,207,0)" stroke="none" d="M 9211,3974 C 9211,4052 9190,4129 9151,4196 9112,4264 9056,4320 8988,4359 8921,4398 8844,4419 8766,4419 8687,4419 8610,4398 8543,4359 8475,4320 8419,4264 8380,4196 8341,4129 8320,4052 8320,3974 8320,3895 8341,3818 8380,3751 8419,3683 8475,3627 8543,3588 8610,3549 8687,3528 8766,3528 8844,3528 8921,3549 8988,3588 9056,3627 9112,3683 9151,3751 9190,3818 9211,3895 9211,3973 L 9211,3974 Z"/>
        <path fill="none" stroke="rgb(174,207,0)" d="M 9211,3974 C 9211,4052 9190,4129 9151,4196 9112,4264 9056,4320 8988,4359 8921,4398 8844,4419 8766,4419 8687,4419 8610,4398 8543,4359 8475,4320 8419,4264 8380,4196 8341,4129 8320,4052 8320,3974 8320,3895 8341,3818 8380,3751 8419,3683 8475,3627 8543,3588 8610,3549 8687,3528 8766,3528 8844,3528 8921,3549 8988,3588 9056,3627 9112,3683 9151,3751 9190,3818 9211,3895 9211,3973 L 9211,3974 Z"/>
       </g>
      </g>
      <g class="com.sun.star.drawing.CustomShape">
       <g id="id8">
        <rect class="BoundingBox" stroke="none" fill="none" x="8409" y="4617" width="704" height="704"/>
        <path fill="rgb(174,207,0)" stroke="none" d="M 9111,4969 C 9111,5030 9095,5090 9064,5144 9033,5197 8989,5241 8936,5272 8882,5303 8822,5319 8761,5319 8699,5319 8639,5303 8585,5272 8532,5241 8488,5197 8457,5144 8426,5090 8410,5030 8410,4969 8410,4907 8426,4847 8457,4793 8488,4740 8532,4696 8585,4665 8639,4634 8699,4618 8761,4618 8822,4618 8882,4634 8936,4665 8989,4696 9033,4740 9064,4793 9095,4847 9111,4907 9111,4969 L 9111,4969 Z"/>
        <path fill="none" stroke="rgb(174,207,0)" d="M 9111,4969 C 9111,5030 9095,5090 9064,5144 9033,5197 8989,5241 8936,5272 8882,5303 8822,5319 8761,5319 8699,5319 8639,5303 8585,5272 8532,5241 8488,5197 8457,5144 8426,5090 8410,5030 8410,4969 8410,4907 8426,4847 8457,4793 8488,4740 8532,4696 8585,4665 8639,4634 8699,4618 8761,4618 8822,4618 8882,4634 8936,4665 8989,4696 9033,4740 9064,4793 9095,4847 9111,4907 9111,4969 Z"/>
       </g>
      </g>
      <g class="com.sun.star.drawing.CustomShape">
       <g id="id9">
        <rect class="BoundingBox" stroke="none" fill="none" x="9209" y="4417" width="504" height="504"/>
        <path fill="rgb(174,207,0)" stroke="none" d="M 9711,4668 C 9711,4712 9699,4756 9677,4794 9655,4832 9624,4863 9586,4885 9548,4907 9504,4919 9461,4919 9417,4919 9373,4907 9335,4885 9297,4863 9266,4832 9244,4794 9222,4756 9210,4712 9210,4668 9210,4625 9222,4581 9244,4543 9266,4505 9297,4474 9335,4452 9373,4430 9417,4418 9461,4418 9504,4418 9548,4430 9586,4452 9624,4474 9655,4505 9677,4543 9699,4581 9711,4625 9711,4668 L 9711,4668 Z"/>
        <path fill="none" stroke="rgb(174,207,0)" d="M 9711,4668 C 9711,4712 9699,4756 9677,4794 9655,4832 9624,4863 9586,4885 9548,4907 9504,4919 9461,4919 9417,4919 9373,4907 9335,4885 9297,4863 9266,4832 9244,4794 9222,4756 9210,4712 9210,4668 9210,4625 9222,4581 9244,4543 9266,4505 9297,4474 9335,4452 9373,4430 9417,4418 9461,4418 9504,4418 9548,4430 9586,4452 9624,4474 9655,4505 9677,4543 9699,4581 9711,4625 9711,4668 Z"/>
       </g>
      </g>
      <g class="com.sun.star.drawing.CustomShape">
       <g id="id10">
        <rect class="BoundingBox" stroke="none" fill="none" x="7809" y="4417" width="504" height="504"/>
        <path fill="rgb(174,207,0)" stroke="none" d="M 8311,4668 C 8311,4712 8299,4756 8277,4794 8255,4832 8224,4863 8186,4885 8148,4907 8104,4919 8060,4919 8017,4919 7973,4907 7935,4885 7897,4863 7866,4832 7844,4794 7822,4756 7810,4712 7810,4668 7810,4625 7822,4581 7844,4543 7866,4505 7897,4474 7935,4452 7973,4430 8017,4418 8060,4418 8104,4418 8148,4430 8186,4452 8224,4474 8255,4505 8277,4543 8299,4581 8311,4625 8311,4668 L 8311,4668 Z"/>
        <path fill="none" stroke="rgb(174,207,0)" d="M 8311,4668 C 8311,4712 8299,4756 8277,4794 8255,4832 8224,4863 8186,4885 8148,4907 8104,4919 8060,4919 8017,4919 7973,4907 7935,4885 7897,4863 7866,4832 7844,4794 7822,4756 7810,4712 7810,4668 7810,4625 7822,4581 7844,4543 7866,4505 7897,4474 7935,4452 7973,4430 8017,4418 8060,4418 8104,4418 8148,4430 8186,4452 8224,4474 8255,4505 8277,4543 8299,4581 8311,4625 8311,4668 Z"/>
       </g>
      </g>
      <g class="com.sun.star.drawing.CustomShape">
       <g id="id11">
        <rect class="BoundingBox" stroke="none" fill="none" x="7309" y="5217" width="1204" height="1104"/>
        <path fill="rgb(174,207,0)" stroke="none" d="M 8511,5769 C 8511,5865 8483,5960 8431,6044 8378,6127 8302,6197 8211,6245 8119,6294 8016,6319 7911,6319 7805,6319 7702,6294 7610,6245 7519,6197 7443,6127 7390,6044 7338,5960 7310,5865 7310,5769 7310,5672 7338,5577 7390,5493 7443,5410 7519,5340 7610,5292 7702,5243 7805,5218 7911,5218 8016,5218 8119,5243 8211,5292 8302,5340 8378,5410 8431,5493 8483,5577 8511,5672 8511,5768 L 8511,5769 Z"/>
        <path fill="none" stroke="rgb(174,207,0)" d="M 8511,5769 C 8511,5865 8483,5960 8431,6044 8378,6127 8302,6197 8211,6245 8119,6294 8016,6319 7911,6319 7805,6319 7702,6294 7610,6245 7519,6197 7443,6127 7390,6044 7338,5960 7310,5865 7310,5769 7310,5672 7338,5577 7390,5493 7443,5410 7519,5340 7610,5292 7702,5243 7805,5218 7911,5218 8016,5218 8119,5243 8211,5292 8302,5340 8378,5410 8431,5493 8483,5577 8511,5672 8511,5768 L 8511,5769 Z"/>
       </g>
      </g>
      <g class="com.sun.star.drawing.CustomShape">
       <g id="id12">
        <rect class="BoundingBox" stroke="none" fill="none" x="9056" y="5217" width="1204" height="1104"/>
        <path fill="rgb(174,207,0)" stroke="none" d="M 10258,5769 C 10258,5865 10230,5960 10178,6044 10125,6127 10049,6197 9958,6245 9866,6294 9763,6319 9658,6319 9552,6319 9449,6294 9357,6245 9266,6197 9190,6127 9137,6044 9085,5960 9057,5865 9057,5769 9057,5672 9085,5577 9137,5493 9190,5410 9266,5340 9357,5292 9449,5243 9552,5218 9658,5218 9763,5218 9866,5243 9958,5292 10049,5340 10125,5410 10178,5493 10230,5577 10258,5672 10258,5768 L 10258,5769 Z"/>
        <path fill="none" stroke="rgb(174,207,0)" d="M 10258,5769 C 10258,5865 10230,5960 10178,6044 10125,6127 10049,6197 9958,6245 9866,6294 9763,6319 9658,6319 9552,6319 9449,6294 9357,6245 9266,6197 9190,6127 9137,6044 9085,5960 9057,5865 9057,5769 9057,5672 9085,5577 9137,5493 9190,5410 9266,5340 9357,5292 9449,5243 9552,5218 9658,5218 9763,5218 9866,5243 9958,5292 10049,5340 10125,5410 10178,5493 10230,5577 10258,5672 10258,5768 L 10258,5769 Z"/>
       </g>
      </g>
      <g class="com.sun.star.drawing.CustomShape">
       <g id="id13">
        <rect class="BoundingBox" stroke="none" fill="none" x="6172" y="6191" width="1204" height="1104"/>
        <path fill="rgb(174,207,0)" stroke="none" d="M 7374,6742 C 7374,6839 7346,6934 7294,7018 7241,7101 7165,7171 7074,7219 6982,7268 6879,7293 6774,7293 6668,7293 6565,7268 6473,7219 6382,7171 6306,7101 6253,7018 6201,6934 6173,6839 6173,6742 6173,6646 6201,6551 6253,6467 6306,6384 6382,6314 6473,6266 6565,6217 6668,6192 6774,6192 6879,6192 6982,6217 7074,6266 7165,6314 7241,6384 7294,6467 7346,6551 7374,6646 7374,6742 L 7374,6742 Z"/>
        <path fill="none" stroke="rgb(174,207,0)" d="M 7374,6742 C 7374,6839 7346,6934 7294,7018 7241,7101 7165,7171 7074,7219 6982,7268 6879,7293 6774,7293 6668,7293 6565,7268 6473,7219 6382,7171 6306,7101 6253,7018 6201,6934 6173,6839 6173,6742 6173,6646 6201,6551 6253,6467 6306,6384 6382,6314 6473,6266 6565,6217 6668,6192 6774,6192 6879,6192 6982,6217 7074,6266 7165,6314 7241,6384 7294,6467 7346,6551 7374,6646 7374,6742 L 7374,6742 Z"/>
       </g>
      </g>
      <g class="com.sun.star.drawing.CustomShape">
       <g id="id14">
        <rect class="BoundingBox" stroke="none" fill="none" x="10109" y="6217" width="1204" height="1104"/>
        <path fill="rgb(174,207,0)" stroke="none" d="M 11311,6769 C 11311,6865 11283,6960 11231,7044 11178,7127 11102,7197 11011,7245 10919,7294 10816,7319 10711,7319 10605,7319 10502,7294 10410,7245 10319,7197 10243,7127 10190,7044 10138,6960 10110,6865 10110,6769 10110,6672 10138,6577 10190,6493 10243,6410 10319,6340 10410,6292 10502,6243 10605,6218 10711,6218 10816,6218 10919,6243 11011,6292 11102,6340 11178,6410 11231,6493 11283,6577 11311,6672 11311,6768 L 11311,6769 Z"/>
        <path fill="none" stroke="rgb(174,207,0)" d="M 11311,6769 C 11311,6865 11283,6960 11231,7044 11178,7127 11102,7197 11011,7245 10919,7294 10816,7319 10711,7319 10605,7319 10502,7294 10410,7245 10319,7197 10243,7127 10190,7044 10138,6960 10110,6865 10110,6769 10110,6672 10138,6577 10190,6493 10243,6410 10319,6340 10410,6292 10502,6243 10605,6218 10711,6218 10816,6218 10919,6243 11011,6292 11102,6340 11178,6410 11231,6493 11283,6577 11311,6672 11311,6768 L 11311,6769 Z"/>
       </g>
      </g>
      <g class="com.sun.star.drawing.CustomShape">
       <g id="id15">
        <rect class="BoundingBox" stroke="none" fill="none" x="6409" y="7517" width="1204" height="1104"/>
        <path fill="rgb(174,207,0)" stroke="none" d="M 7611,8069 C 7611,8165 7583,8260 7531,8344 7478,8427 7402,8497 7311,8545 7219,8594 7116,8619 7011,8619 6905,8619 6802,8594 6710,8545 6619,8497 6543,8427 6490,8344 6438,8260 6410,8165 6410,8069 6410,7972 6438,7877 6490,7793 6543,7710 6619,7640 6710,7592 6802,7543 6905,7518 7011,7518 7116,7518 7219,7543 7311,7592 7402,7640 7478,7710 7531,7793 7583,7877 7611,7972 7611,8068 L 7611,8069 Z"/>
        <path fill="none" stroke="rgb(174,207,0)" d="M 7611,8069 C 7611,8165 7583,8260 7531,8344 7478,8427 7402,8497 7311,8545 7219,8594 7116,8619 7011,8619 6905,8619 6802,8594 6710,8545 6619,8497 6543,8427 6490,8344 6438,8260 6410,8165 6410,8069 6410,7972 6438,7877 6490,7793 6543,7710 6619,7640 6710,7592 6802,7543 6905,7518 7011,7518 7116,7518 7219,7543 7311,7592 7402,7640 7478,7710 7531,7793 7583,7877 7611,7972 7611,8068 L 7611,8069 Z"/>
       </g>
      </g>
      <g class="com.sun.star.drawing.CustomShape">
       <g id="id16">
        <rect class="BoundingBox" stroke="none" fill="none" x="9709" y="7517" width="1204" height="1104"/>
        <path fill="rgb(174,207,0)" stroke="none" d="M 10911,8069 C 10911,8165 10883,8260 10831,8344 10778,8427 10702,8497 10611,8545 10519,8594 10416,8619 10311,8619 10205,8619 10102,8594 10010,8545 9919,8497 9843,8427 9790,8344 9738,8260 9710,8165 9710,8069 9710,7972 9738,7877 9790,7793 9843,7710 9919,7640 10010,7592 10102,7543 10205,7518 10311,7518 10416,7518 10519,7543 10611,7592 10702,7640 10778,7710 10831,7793 10883,7877 10911,7972 10911,8068 L 10911,8069 Z"/>
        <path fill="none" stroke="rgb(174,207,0)" d="M 10911,8069 C 10911,8165 10883,8260 10831,8344 10778,8427 10702,8497 10611,8545 10519,8594 10416,8619 10311,8619 10205,8619 10102,8594 10010,8545 9919,8497 9843,8427 9790,8344 9738,8260 9710,8165 9710,8069 9710,7972 9738,7877 9790,7793 9843,7710 9919,7640 10010,7592 10102,7543 10205,7518 10311,7518 10416,7518 10519,7543 10611,7592 10702,7640 10778,7710 10831,7793 10883,7877 10911,7972 10911,8068 L 10911,8069 Z"/>
       </g>
      </g>
      <g class="com.sun.star.drawing.CustomShape">
       <g id="id17">
        <rect class="BoundingBox" stroke="none" fill="none" x="7609" y="6517" width="504" height="504"/>
        <path fill="rgb(174,207,0)" stroke="none" d="M 8111,6768 C 8111,6812 8099,6856 8077,6894 8055,6932 8024,6963 7986,6985 7948,7007 7904,7019 7860,7019 7817,7019 7773,7007 7735,6985 7697,6963 7666,6932 7644,6894 7622,6856 7610,6812 7610,6768 7610,6725 7622,6681 7644,6643 7666,6605 7697,6574 7735,6552 7773,6530 7817,6518 7860,6518 7904,6518 7948,6530 7986,6552 8024,6574 8055,6605 8077,6643 8099,6681 8111,6725 8111,6768 L 8111,6768 Z"/>
        <path fill="none" stroke="rgb(174,207,0)" d="M 8111,6768 C 8111,6812 8099,6856 8077,6894 8055,6932 8024,6963 7986,6985 7948,7007 7904,7019 7860,7019 7817,7019 7773,7007 7735,6985 7697,6963 7666,6932 7644,6894 7622,6856 7610,6812 7610,6768 7610,6725 7622,6681 7644,6643 7666,6605 7697,6574 7735,6552 7773,6530 7817,6518 7860,6518 7904,6518 7948,6530 7986,6552 8024,6574 8055,6605 8077,6643 8099,6681 8111,6725 8111,6768 Z"/>
       </g>
      </g>
      <g class="com.sun.star.drawing.CustomShape">
       <g id="id18">
        <rect class="BoundingBox" stroke="none" fill="none" x="9309" y="6517" width="504" height="504"/>
        <path fill="rgb(174,207,0)" stroke="none" d="M 9811,6768 C 9811,6812 9799,6856 9777,6894 9755,6932 9724,6963 9686,6985 9648,7007 9604,7019 9561,7019 9517,7019 9473,7007 9435,6985 9397,6963 9366,6932 9344,6894 9322,6856 9310,6812 9310,6768 9310,6725 9322,6681 9344,6643 9366,6605 9397,6574 9435,6552 9473,6530 9517,6518 9561,6518 9604,6518 9648,6530 9686,6552 9724,6574 9755,6605 9777,6643 9799,6681 9811,6725 9811,6768 L 9811,6768 Z"/>
        <path fill="none" stroke="rgb(174,207,0)" d="M 9811,6768 C 9811,6812 9799,6856 9777,6894 9755,6932 9724,6963 9686,6985 9648,7007 9604,7019 9561,7019 9517,7019 9473,7007 9435,6985 9397,6963 9366,6932 9344,6894 9322,6856 9310,6812 9310,6768 9310,6725 9322,6681 9344,6643 9366,6605 9397,6574 9435,6552 9473,6530 9517,6518 9561,6518 9604,6518 9648,6530 9686,6552 9724,6574 9755,6605 9777,6643 9799,6681 9811,6725 9811,6768 Z"/>
       </g>
      </g>
     </g>
    </g>
   </g>
  </g>
 </g>
</svg>